HIERARCHY
ROOT root
{
	OFFSET 0.000000 0.000000 0.000000
	CHANNELS 6 Xposition Yposition Zposition Zrotation Yrotation Xrotation
	JOINT lhip
	{
		OFFSET 0.058581 -0.082280 -0.017664
		CHANNELS 3 Zrotation Yrotation Xrotation
		JOINT lknee
		{
			OFFSET 0.043451 -0.386469 0.008037
			CHANNELS 3 Zrotation Yrotation Xrotation
			JOINT lankle
			{
				OFFSET -0.014790 -0.426874 -0.037428
				CHANNELS 3 Zrotation Yrotation Xrotation
				JOINT ltoe
				{
					OFFSET 0.041054 -0.060286 0.122042
					CHANNELS 3 Zrotation Yrotation Xrotation
					End Site
					{
						OFFSET 0.000000 0.000000 0.000000
					}
				}
			}
		}
	}
	JOINT rhip
	{
		OFFSET -0.060310 -0.090513 -0.013543
		CHANNELS 3 Zrotation Yrotation Xrotation
		JOINT rknee
		{
			OFFSET -0.043257 -0.383688 -0.004843
			CHANNELS 3 Zrotation Yrotation Xrotation
			JOINT rankle
			{
				OFFSET 0.019056 -0.420046 -0.034562
				CHANNELS 3 Zrotation Yrotation Xrotation
				JOINT rtoe
				{
					OFFSET -0.034840 -0.062106 0.130323
					CHANNELS 3 Zrotation Yrotation Xrotation
					End Site
					{
						OFFSET 0.000000 0.000000 0.000000
					}
				}
			}
		}
	}
	JOINT lowerback
	{
		OFFSET 0.004439 0.124404 -0.038385
		CHANNELS 3 Zrotation Yrotation Xrotation
		JOINT upperback
		{
			OFFSET 0.004488 0.137956 0.026820
			CHANNELS 3 Zrotation Yrotation Xrotation
			JOINT chest
			{
				OFFSET -0.002265 0.056032 0.002855
				CHANNELS 3 Zrotation Yrotation Xrotation
				JOINT lowerneck
				{
					OFFSET -0.013390 0.211636 -0.033468
					CHANNELS 3 Zrotation Yrotation Xrotation
					JOINT upperneck
					{
						OFFSET 0.010113 0.088937 0.050410
						CHANNELS 3 Zrotation Yrotation Xrotation
						End Site
						{
							OFFSET 0.000000 0.000000 0.000000
						}
					}
				}
				JOINT lclavicle
				{
					OFFSET 0.071702 0.114000 -0.018898
					CHANNELS 3 Zrotation Yrotation Xrotation
					JOINT lshoulder
					{
						OFFSET 0.122921 0.045205 -0.019046
						CHANNELS 3 Zrotation Yrotation Xrotation
						JOINT lelbow
						{
							OFFSET 0.255332 -0.015649 -0.022946
							CHANNELS 3 Zrotation Yrotation Xrotation
							JOINT lwrist
							{
								OFFSET 0.265709 0.012698 -0.007375
								CHANNELS 3 Zrotation Yrotation Xrotation
								End Site
								{
									OFFSET 0.000000 0.000000 0.000000
								}
							}
						}
					}
				}
				JOINT rclavicle
				{
					OFFSET -0.082954 0.112472 -0.023707
					CHANNELS 3 Zrotation Yrotation Xrotation
					JOINT rshoulder
					{
						OFFSET -0.113228 0.046853 -0.008472
						CHANNELS 3 Zrotation Yrotation Xrotation
						JOINT relbow
						{
							OFFSET -0.260127 -0.014369 -0.031269
							CHANNELS 3 Zrotation Yrotation Xrotation
							JOINT rwrist
							{
								OFFSET -0.269108 0.006794 -0.006027
								CHANNELS 3 Zrotation Yrotation Xrotation
								End Site
								{
									OFFSET 0.000000 0.000000 0.000000
								}
							}
						}
					}
				}
			}
		}
	}
}
MOTION
Frames: 13
Frame Time: 0.033333
0.298483 0.152978 0.975831 87.427686 1.185049 87.979490 9.641956 1.561500 -1.278878 0.002350 -6.231722 6.182845 -0.620218 7.574005 -11.266136 0.000000 -0.000000 0.000000 -6.893124 -3.012091 2.081971 1.647362 -5.111569 0.075442 2.466502 -5.092747 -8.053417 0.000000 -0.000000 0.000000 3.316901 -0.653939 5.889955 1.537265 -5.893740 2.702388 1.626158 -4.098759 -2.970826 -8.512070 18.651246 10.386645 -4.148077 12.416404 -14.475848 -19.608908 -3.887354 3.461914 -59.911068 -1.508451 12.003643 11.785786 -29.162036 -0.221248 -9.499994 -17.353756 -2.964663 16.707320 5.395386 2.257780 55.934073 -0.024849 10.746571 -9.864573 32.469603 -2.233738 11.651879 18.364121 -10.703824 
0.294199 0.150297 0.975832 89.263284 1.036033 88.598769 9.705184 1.330130 -2.883131 -0.182230 -6.978425 6.561450 -0.879447 7.425651 -11.854720 0.000000 -0.000000 0.000000 -6.898693 -3.290189 0.895087 1.720734 -6.021607 1.383358 2.579424 -5.732508 -8.688004 0.000000 -0.000000 0.000000 3.346936 -0.710508 7.052840 1.252485 -5.830732 1.795787 1.671966 -4.137750 -2.258410 -9.336464 19.858845 8.552396 -4.772579 13.184639 -16.012767 -19.409202 -4.042215 3.320636 -59.437295 -0.916293 11.785548 11.712848 -31.851940 0.312733 -8.190556 -17.787686 -3.984248 16.477744 5.056609 2.626153 56.123503 -1.435012 10.893925 -9.466949 37.100538 -1.225883 9.321779 19.426917 -12.221660 
0.290217 0.148122 0.975078 92.068728 1.150260 90.780883 9.936460 2.559172 -7.304180 -1.070327 -10.482576 8.748394 -2.883313 8.095505 -15.121915 0.000000 -0.000000 0.000000 -6.761919 -4.074281 -1.471683 2.483072 -5.921394 2.053241 1.867931 -8.274409 -9.098961 0.000000 -0.000000 0.000000 2.896170 -0.619478 5.469558 2.514470 -6.467617 1.222698 1.362619 -3.548911 -0.376830 -12.031661 19.511006 7.284865 -4.941120 13.665027 -19.305334 -19.827924 -5.149678 2.590189 -59.641520 -0.292290 14.187233 13.213480 -32.125195 -0.216158 -1.337092 -22.292087 -6.656500 14.493279 4.261205 -0.959534 56.407053 -5.145775 10.634758 -4.107093 41.859495 6.238042 -0.009823 22.302388 -18.262230 
0.286258 0.146198 0.975014 95.275205 0.890770 91.571687 9.816302 2.395177 -9.627302 -1.362697 -10.866895 9.584998 -3.139977 7.985051 -16.839548 0.000000 -0.000000 0.000000 -6.889924 -4.631951 -1.950562 2.578030 -7.307598 2.224781 1.789095 -9.353056 -9.312908 0.000000 -0.000000 0.000000 2.943379 -0.593788 6.266515 2.278514 -6.478649 0.608331 1.210380 -3.665662 0.311314 -12.384269 19.356504 5.811495 -5.154508 13.272784 -20.440503 -19.270048 -4.901085 2.219046 -59.987154 0.092553 14.786873 13.612506 -33.982619 0.746485 1.115607 -22.744365 -8.673293 13.586446 3.856478 -1.270680 56.968792 -6.704923 11.108931 -2.737584 47.179707 8.889198 -3.554975 22.845228 -21.410648 
0.285143 0.145839 0.974972 97.221443 0.808982 91.771813 9.726715 2.423603 -10.585830 -1.142649 -10.164478 9.894423 -2.660974 8.781717 -17.435603 0.000000 -0.000000 0.000000 -6.886428 -4.980015 -1.631806 2.602546 -8.000345 1.905689 1.711089 -10.019962 -9.336817 0.000000 -0.000000 0.000000 3.053411 -0.468459 6.683782 2.108856 -6.505968 0.429685 1.149362 -3.710494 0.578416 -12.269674 18.664989 5.388309 -4.990586 12.860390 -20.794588 -19.273034 -4.981111 2.109925 -60.045878 0.242767 14.869396 13.649287 -34.441108 0.957739 1.814997 -22.715328 -9.219532 12.992419 3.773035 -1.507793 57.110700 -7.355818 11.130557 -1.641477 49.747642 10.028282 -4.362339 22.866652 -22.974686 
0.285379 0.146233 0.974805 99.443570 0.750081 91.967175 9.717538 2.682078 -11.139728 -0.805281 -8.967022 9.567841 -2.111778 9.575657 -17.440632 0.000000 -0.000000 0.000000 -6.890572 -5.359573 -1.013649 2.650612 -8.888835 1.331443 1.778566 -10.665512 -9.278134 0.000000 -0.000000 0.000000 3.058619 -0.122290 6.760858 2.003557 -6.332257 0.382113 1.166188 -3.719033 0.744129 -11.665039 17.306583 5.642227 -4.466879 11.926378 -20.757344 -19.333351 -5.067870 1.959503 -60.344926 0.466737 15.149412 13.526456 -34.229400 1.323871 2.165935 -22.628228 -9.421317 12.271803 3.654598 -1.903769 56.991017 -8.156108 11.216258 -0.186653 52.562381 11.359712 -4.843246 22.855486 -24.507399 
0.287779 0.147650 0.974360 101.004301 0.688418 92.224721 9.695725 3.093341 -11.030834 -0.611382 -8.351601 8.312961 -2.101141 9.657533 -16.542744 0.000000 -0.000000 0.000000 -6.894832 -5.619062 -0.588494 2.582817 -9.672007 0.976562 2.015591 -11.003919 -9.309695 0.000000 -0.000000 0.000000 2.798724 0.328737 6.230598 2.058005 -5.955091 0.350154 1.277264 -3.670327 0.773153 -10.850162 15.871691 6.675980 -3.776518 11.106602 -20.332840 -19.392068 -4.703801 1.679631 -60.921289 0.795224 15.664060 13.156121 -33.138244 1.878624 2.097177 -22.489655 -9.374274 11.859820 3.367588 -2.218201 56.454391 -8.490065 11.576075 0.936759 54.471305 12.403197 -5.016196 23.018664 -25.340177 
0.291510 0.149911 0.973864 101.845563 0.713321 92.312627 9.686910 3.371687 -10.565655 -0.436724 -7.979321 7.212407 -2.397590 9.710182 -15.636151 0.000000 -0.000000 0.000000 -6.869238 -5.774093 -0.179641 2.431809 -10.195299 0.884420 2.246106 -11.122533 -9.435608 0.000000 -0.000000 0.000000 2.531343 0.724859 5.634398 2.190437 -5.559348 0.234392 1.402845 -3.469485 0.809959 -10.182496 14.811639 7.801016 -3.222138 10.624197 -19.810617 -19.426104 -4.022482 1.482729 -61.566378 1.118191 15.979321 12.526680 -31.452860 2.394746 1.986753 -22.362157 -9.508604 11.729314 2.998051 -2.377712 55.790917 -8.188234 11.730338 1.504861 55.813072 13.116113 -5.147617 23.204646 -25.018262 
0.295301 0.152451 0.973565 102.409078 0.717191 92.228556 9.617746 3.531310 -10.400774 -0.292432 -7.100760 7.181578 -2.560912 10.027853 -14.983793 0.000000 -0.000000 0.000000 -6.908520 -5.982730 0.398292 2.223104 -10.658771 0.760298 2.506654 -11.120180 -9.540501 0.000000 -0.000000 0.000000 2.246027 1.017809 5.255594 2.361533 -5.411109 0.111435 1.554749 -3.273356 0.823137 -9.967918 14.453740 8.497913 -2.994559 10.550661 -19.479481 -19.393086 -3.581137 1.493399 -62.162179 1.663799 16.020391 12.076874 -29.682712 2.711278 2.111198 -22.084159 -10.145669 11.908188 2.846934 -2.468490 55.039554 -7.854368 11.746860 1.717583 58.327702 13.521471 -5.781025 23.284883 -24.655308 
0.299243 0.156319 0.973124 103.158483 0.563030 92.104816 9.270899 3.499250 -11.435678 -0.464160 -5.664293 9.380708 -2.340380 10.523309 -14.296304 0.000000 -0.000000 0.000000 -7.165545 -6.342210 0.926065 1.864554 -11.203157 0.990510 2.694584 -11.239891 -9.881474 0.000000 -0.000000 0.000000 1.959954 1.267736 5.064309 2.432724 -5.572976 -0.334606 1.671520 -3.109357 1.093656 -10.303602 15.021520 8.517067 -3.208142 11.220123 -19.466527 -19.157921 -3.504979 1.490119 -62.625051 2.784600 16.013071 11.466914 -27.916344 3.916270 3.135748 -21.638391 -11.790821 12.063647 3.139378 -2.765728 54.358786 -7.316961 11.943496 2.357255 64.078691 14.114440 -8.179822 23.568567 -26.279771 
0.302153 0.160515 0.972615 103.914742 0.605186 91.909124 9.122113 3.144377 -13.199417 -0.974788 -4.514276 12.877546 -1.746750 10.988615 -13.631118 0.000000 -0.000000 0.000000 -7.379153 -6.450008 1.400690 1.730339 -11.697937 1.424201 2.719081 -11.469165 -10.410384 0.000000 -0.000000 0.000000 2.087491 1.456794 5.050861 2.389512 -5.818298 -0.821722 1.614064 -2.814003 1.452660 -10.596456 15.839652 8.176524 -3.501633 12.019474 -19.692636 -18.807003 -3.671967 1.489133 -62.674544 3.918354 15.967435 10.764941 -27.695428 6.027935 3.909639 -21.240353 -13.295874 11.905687 3.827296 -3.141607 54.004794 -6.327888 12.004764 3.099623 70.355636 14.950464 -10.720232 23.491644 -28.159418 
0.305386 0.166103 0.971309 104.848205 0.903440 91.654851 9.212274 2.532555 -15.265814 -1.491543 -3.145158 16.659241 -0.719341 11.261655 -11.989331 0.000000 -0.000000 0.000000 -7.477160 -6.392862 2.061252 1.725357 -12.350539 1.853343 2.750957 -11.616175 -10.919625 0.000000 -0.000000 0.000000 2.324767 1.821096 4.991816 2.380820 -5.986862 -1.207658 1.526008 -2.312860 1.707101 -10.451581 16.546266 7.854941 -3.521369 12.666721 -19.774159 -18.236274 -3.889553 1.472850 -62.709213 5.154306 15.889513 10.092668 -28.630523 8.432075 4.148829 -21.185773 -14.713803 11.693456 4.977663 -3.637940 53.550444 -4.442021 12.002478 2.281114 77.132490 14.762145 -12.891330 23.642553 -29.331268 
0.308907 0.172843 0.969381 106.036637 1.342981 91.358654 9.411809 2.024453 -17.057075 -1.920040 -1.743165 19.998426 0.095894 11.213289 -11.269720 0.000000 -0.000000 0.000000 -7.484839 -6.450057 2.918122 1.673637 -13.080077 2.246424 3.069658 -11.588657 -11.357774 0.000000 -0.000000 0.000000 2.352758 2.432729 4.977550 2.490983 -5.889707 -1.764752 1.489177 -1.760998 2.039416 -9.799573 16.889247 7.544332 -3.269861 13.025784 -19.492563 -17.528568 -3.898190 1.315380 -62.912024 6.177992 15.847917 9.771210 -29.840939 10.284731 4.238464 -21.528192 -16.185334 11.667403 6.349073 -4.427470 52.758676 -1.280649 11.959367 -5.442519 83.504073 8.147972 -14.866064 23.925569 -29.230869 
